<svg width="265" height="36.62383634" xmlns="http://www.w3.org/2000/svg">
 <g>
  <rect fill="none" id="canvas_background" height="38.623836" width="267" y="-1" x="-1"/>
 </g>
 <g>
  <path fill="#4d4d50" id="path6082" d="m9.86337,21.875l-3.0665,9.121099c-0.09274,0.664061 0.05863,1.196291 0.44926,1.582022c0.59575,0.60059 1.49412,0.91309 2.69537,0.9375l0,0.234379l-9.9415,0l0,-0.234379c2.09475,-0.141602 3.36925,-0.869133 3.82813,-2.187502l10.52737,-31.328119l12.968749,31.50391c0.463871,1.20116 1.62112,1.87011 3.457001,2.011711l0.03912,0.234379l-10.25387,0l0,-0.234379c1.079121,0 1.860371,-0.297852 2.34375,-0.89843c0.268499,-0.229492 0.341751,-0.634771 0.21475,-1.210941c-0.78125,-1.977539 -2.084881,-5.15625 -3.90625,-9.53125l-9.35538,0zm0.664001,-1.992189l7.83201,0l-4.218751,-10.566401l-3.613259,10.566401zm84.999996,-17.050771l0,-0.17579c6.938515,-0.02441 11.367256,0.08301 13.281265,0.3125c1.557617,0.18555 3.012741,0.77636 4.355492,1.77735c1.352509,1.00585 2.304626,2.2412 2.851509,3.71094c0.346741,0.96678 0.527367,1.9873 0.527367,3.066401c0,2.2168 -0.673752,4.0918 -2.011749,5.624999c-1.748001,1.914061 -3.793877,2.871101 -6.132751,2.871101c-0.859375,0 -1.713875,-0.14649 -2.558617,-0.44923c-0.664009,-0.22949 -0.996132,-0.4541 -0.996132,-0.664061c1.625999,0.053711 2.753998,0.00976 3.378998,-0.136709c1.079124,-0.26857 2.080002,-0.864271 3.007751,-1.777351c0.932617,-0.92285 1.508873,-1.938479 1.71875,-3.04688c0.112373,-0.502919 0.175751,-1.015619 0.175751,-1.523439c0,-2.82226 -1.245003,-5.04395 -3.730377,-6.66015c-1.132874,-0.75196 -2.485374,-1.13281 -4.042999,-1.13281c-0.874001,0 -1.704124,0.1416 -2.480492,0.41015l0,25.703129c0,1.552732 1.044998,2.47558 3.144501,2.773432l0,0.234379l-10.390633,0l0,-0.234379c1.494247,-0.20507 2.519623,-0.786133 3.066498,-1.738272c0.180626,-0.36134 0.273384,-1.547859 0.273384,-3.554689l0,-22.91016c0,-1.23535 -0.786133,-2.0166 -2.34375,-2.34375c-0.249008,-0.02441 -0.615265,-0.06836 -1.093765,-0.13671zm-50.839867,-0.17579c1.704128,0 3.32037,0.52246 4.84375,1.5625c1.533249,1.03027 2.636749,2.35351 3.300869,3.96485c0.415001,1.054689 0.625,2.18261 0.625,3.3789c0,2.28027 -0.693371,4.15527 -2.07037,5.625c-0.654251,0.71777 -1.508751,1.39649 -2.55862,2.03125c2.250999,2.8125 5.400501,6.61132 9.453121,11.386721c1.376999,1.640631 3.232498,2.436518 5.566502,2.382818c0.038998,0.029282 0.058498,0.087883 0.058498,0.17577c-0.89838,0.507813 -1.958,0.76173 -3.164001,0.76173c-1.523499,0 -2.861378,-0.371098 -4.00388,-1.113289c-1.772488,-1.16699 -3.61824,-2.97364 -5.52737,-5.410151c-3.085999,-4.01856 -4.66312,-6.05958 -4.72662,-6.113289c-0.991127,-1.10351 -2.143497,-1.782221 -3.457008,-2.03125l0,-0.17577c2.456131,0.209949 4.379879,-0.512701 5.761749,-2.16798c0.947262,-1.12792 1.425762,-2.597651 1.425762,-4.394521c0,-0.90822 -0.131763,-1.76759 -0.390633,-2.57813c-0.42963,-1.28419 -1.235378,-2.42187 -2.402378,-3.39844c-1.161991,-0.97168 -2.40712,-1.54786 -3.73037,-1.71875c-1.435631,-0.21973 -2.602631,-0.13183 -3.496132,0.2539l0,25.83985c0.073261,0.625 0.41988,1.181639 1.03513,1.660151c0.503002,0.41993 1.084,0.693367 1.738251,0.82032l0.898499,0.11718l0,0.234379l-10.839878,0l0,-0.234379c1.650379,-0.20507 2.719749,-0.820313 3.203129,-1.835932l0.136749,-0.859379l0,-25.37109c0,-1.07911 -0.620129,-1.84571 -1.855499,-2.30468c-0.483368,-0.14162 -1.127869,-0.24415 -1.93362,-0.3125l0,-0.17579l12.109371,0zm45.996132,0.17579c-2.16301,0.30272 -3.325134,1.04003 -3.476509,2.20702l0,19.4336c-0.1465,1.865231 -0.795876,3.61816 -1.953125,5.253901c-1.162117,1.630859 -2.607498,2.880861 -4.335999,3.749998c-1.445251,0.712891 -3.081001,1.07423 -4.902367,1.07423c-2.31926,0 -4.321266,-0.556648 -5.99601,-1.660168c-3.505875,-2.250971 -5.25399,-5.415031 -5.25399,-9.492182l0,-18.125c0,-0.9082 -0.541885,-1.62109 -1.621014,-2.1289c-0.13187,-0.02443 -0.73737,-0.12697 -1.81649,-0.3125l0,-0.21485l10.66412,0l0,0.17578c-2.006866,0.14648 -3.149368,0.88379 -3.417999,2.20703l0,19.335939c0,3.061522 1.289124,5.375971 3.867249,6.933601c1.167,0.732409 2.539001,1.093748 4.101501,1.093748c1.977623,0 3.75975,-0.708019 5.351624,-2.12892c1.586876,-1.430658 2.402245,-3.13476 2.441376,-5.11718l0.039001,-3.613279l0,-16.01562c0,-1.01075 -0.590752,-1.7627 -1.757751,-2.2461c-0.234375,-0.08789 -0.834999,-0.22462 -1.796875,-0.41015l0,-0.21485l9.863258,0l0,0.21485z"/>

  <g y='-20' x='-5'>
  <path fill="#007baf" d="M126.98 53.75C128.06 54.47 129.36 54.83 130.89 54.83C132.62 54.83 134.01 54.38 135.04 53.48C136.08 52.58 136.59 51.49 136.59 50.20C136.59 49.01 136.36 48.03 135.88 47.26C135.41 46.49 134.59 45.83 133.42 45.28L132.01 44.61C131.11 44.17 130.51 43.83 130.21 43.59C129.92 43.35 129.69 43.05 129.53 42.69C129.36 42.33 129.28 41.93 129.28 41.49C129.28 40.78 129.51 40.20 129.97 39.75C130.42 39.29 131.05 39.07 131.85 39.07C132.39 39.07 132.99 39.17 133.63 39.38C134.27 39.59 134.75 39.81 135.06 40.04L135.75 38C135.01 37.38 133.69 37.07 131.79 37.07C130.37 37.07 129.20 37.50 128.30 38.34C127.39 39.18 126.94 40.25 126.94 41.53C126.94 42.58 127.17 43.48 127.63 44.23C128.10 44.98 128.92 45.63 130.09 46.18L131.47 46.82C132.71 47.41 133.49 47.95 133.80 48.45C134.11 48.94 134.26 49.48 134.26 50.06C134.26 50.83 133.98 51.47 133.43 51.97C132.88 52.47 132.14 52.72 131.23 52.72C130.71 52.72 130.13 52.61 129.47 52.40C128.82 52.18 128.28 51.91 127.84 51.59ZM153.66 54.54L155.88 54.54L155.88 46.14C155.88 44.75 155.53 43.67 154.82 42.90C154.11 42.13 153.10 41.75 151.80 41.75C151.09 41.75 150.39 41.91 149.71 42.23C149.03 42.55 148.56 42.95 148.31 43.43C147.59 42.31 146.34 41.75 144.54 41.75C143.25 41.75 142.18 42.31 141.32 43.44L140.58 41.98L139.13 41.98L139.13 54.54L141.35 54.54L141.35 45.28C141.56 44.86 141.92 44.48 142.42 44.14C142.93 43.80 143.40 43.63 143.85 43.63C144.61 43.63 145.23 43.80 145.69 44.16C146.16 44.51 146.39 45.00 146.39 45.62L146.39 54.54L148.62 54.54L148.62 45.25C148.79 44.83 149.11 44.46 149.58 44.12C150.05 43.79 150.55 43.63 151.09 43.63C152.80 43.63 153.66 44.61 153.66 46.59ZM166.14 53.09C166.33 53.69 166.65 54.11 167.10 54.37C167.55 54.63 168.23 54.76 169.14 54.76L169.14 53.64C168.48 53.28 168.15 52.54 168.15 51.44L168.15 46.94C168.15 45.14 167.74 43.82 166.92 42.99C166.09 42.16 164.77 41.75 162.95 41.75C162.27 41.75 161.56 41.87 160.81 42.12C160.06 42.37 159.48 42.66 159.06 43.00L160.00 44.87C160.75 44.12 161.82 43.74 163.21 43.74C165.02 43.74 165.93 44.76 165.93 46.79C165.33 46.59 164.80 46.48 164.33 46.48C162.61 46.48 161.19 46.92 160.07 47.80C158.96 48.68 158.40 49.76 158.40 51.03C158.40 52.09 158.76 52.98 159.49 53.70C160.21 54.41 161.06 54.77 162.05 54.77C163.88 54.77 165.25 54.21 166.14 53.09ZM165.93 48.37L165.93 51.41C165.06 52.48 164.06 53.01 162.94 53.01C161.40 53.01 160.63 52.36 160.63 51.05C160.63 50.27 160.98 49.58 161.70 49.00C162.41 48.43 163.32 48.14 164.45 48.14C164.73 48.14 165.22 48.21 165.93 48.37ZM178.48 44.13L179.40 41.96C178.65 41.82 178.08 41.75 177.68 41.75C176.08 41.75 174.87 42.50 174.06 43.99L174.06 41.98L171.83 41.98L171.83 54.54L174.06 54.54L174.06 47.34C174.06 46.32 174.35 45.44 174.94 44.71C175.53 43.99 176.22 43.63 177.01 43.63C177.50 43.63 177.99 43.79 178.48 44.13ZM181.78 43.74L181.78 50.87C181.78 51.99 182.12 52.92 182.81 53.66C183.49 54.40 184.33 54.77 185.32 54.77C186.42 54.77 187.43 54.65 188.36 54.42L188.03 52.46C187.42 52.75 186.83 52.89 186.26 52.89C185.47 52.89 184.90 52.67 184.54 52.23C184.19 51.78 184.01 51.03 184.01 49.98L184.01 43.74L187.45 43.74L187.45 41.98L184.01 41.98L184.01 38.50L181.78 39.36L181.78 41.98L180.33 41.98L180.33 43.74ZM197.09 45.80C197.09 48.45 197.70 50.61 198.92 52.30C200.14 53.98 201.84 54.83 204 54.83C206.38 54.83 208.20 54.03 209.47 52.43C210.75 50.83 211.38 48.63 211.38 45.80C211.38 43.05 210.75 40.91 209.48 39.37C208.21 37.83 206.38 37.06 204 37.06C201.88 37.06 200.20 37.90 198.96 39.57C197.71 41.24 197.09 43.32 197.09 45.80ZM199.55 45.80C199.55 43.76 199.93 42.14 200.68 40.95C201.44 39.77 202.55 39.17 204 39.17C207.28 39.17 208.92 41.38 208.92 45.80C208.92 47.99 208.50 49.69 207.66 50.90C206.82 52.11 205.60 52.72 204 52.72C202.59 52.72 201.49 52.06 200.71 50.74C199.94 49.42 199.55 47.77 199.55 45.80ZM220.69 38.83L221.31 37.19C220.57 36.96 219.87 36.84 219.22 36.84C217.93 36.84 216.88 37.30 216.09 38.21C215.30 39.13 214.91 40.38 214.91 41.98L213.08 41.98L213.08 43.86L214.91 43.86L214.91 54.54L217.14 54.54L217.14 43.86L219.69 43.86L219.69 41.98L217.14 41.98C217.10 41.76 217.08 41.54 217.08 41.33C217.08 40.54 217.30 39.89 217.74 39.37C218.18 38.86 218.74 38.60 219.42 38.60C219.81 38.60 220.23 38.68 220.69 38.83ZM229.56 38.83L230.18 37.19C229.44 36.96 228.74 36.84 228.09 36.84C226.80 36.84 225.75 37.30 224.96 38.21C224.18 39.13 223.78 40.38 223.78 41.98L221.95 41.98L221.95 43.86L223.78 43.86L223.78 54.54L226.01 54.54L226.01 43.86L228.56 43.86L228.56 41.98L226.01 41.98C225.97 41.76 225.95 41.54 225.95 41.33C225.95 40.54 226.17 39.89 226.61 39.37C227.05 38.86 227.61 38.60 228.29 38.60C228.68 38.60 229.11 38.68 229.56 38.83ZM233.94 37.24C233.56 37.24 233.23 37.37 232.97 37.64C232.70 37.90 232.57 38.23 232.57 38.61C232.57 38.99 232.71 39.32 232.97 39.59C233.24 39.86 233.57 39.99 233.94 39.99C234.32 39.99 234.65 39.86 234.92 39.59C235.19 39.32 235.32 38.99 235.32 38.61C235.32 38.23 235.19 37.91 234.92 37.64C234.65 37.37 234.32 37.24 233.94 37.24ZM232.72 54.54L234.95 54.54L234.95 41.98L231 41.98L231 43.86L232.72 43.86ZM247.96 43.00C247.60 42.71 247.04 42.43 246.28 42.16C245.52 41.89 244.82 41.75 244.17 41.75C242.16 41.75 240.57 42.36 239.41 43.57C238.25 44.78 237.67 46.38 237.67 48.38C237.67 50.34 238.23 51.90 239.34 53.05C240.46 54.20 241.88 54.77 243.59 54.77C245.35 54.77 246.83 54.38 248.03 53.61L247.15 51.73C246.13 52.51 245.12 52.89 244.13 52.89C242.84 52.89 241.83 52.51 241.10 51.74C240.38 50.97 240.01 49.85 240.01 48.38C240.01 46.91 240.37 45.74 241.08 44.90C241.79 44.05 242.75 43.63 243.96 43.63C244.52 43.63 245.08 43.73 245.65 43.93C246.23 44.13 246.63 44.35 246.86 44.57ZM260.94 48.48C261.06 48.06 261.12 47.61 261.12 47.12C261.12 45.52 260.63 44.23 259.64 43.26C258.63 42.25 257.22 41.75 255.43 41.75C253.89 41.75 252.56 42.31 251.44 43.43C250.18 44.68 249.55 46.34 249.55 48.41C249.55 50.40 250.16 51.98 251.39 53.16C252.49 54.23 253.83 54.77 255.41 54.77C256.50 54.77 257.50 54.61 258.39 54.28C259.10 54.03 259.63 53.73 259.97 53.39L259.03 51.78C258.18 52.52 257.12 52.89 255.84 52.89C254.73 52.89 253.81 52.55 253.10 51.86C252.30 51.07 251.89 49.95 251.89 48.48ZM255.54 43.63C256.60 43.63 257.44 43.95 258.06 44.61C258.62 45.21 258.90 45.96 258.90 46.86L251.95 46.86C252.04 45.95 252.40 45.20 253.04 44.59C253.71 43.95 254.55 43.63 255.54 43.63Z"/>
  </g>
 </g>
</svg>